<svg width="89" height="22" viewBox="0 0 89 22" fill="none" xmlns="http://www.w3.org/2000/svg">
<g clip-path="url(#clip0_709_7193)">
<path d="M18.0061 14.2168H13.4049L18.5812 5.5462H3.45703V16.4945H5.98972V12.0907H9.94588V9.96469H6.01327V7.80167H9.98285H14.2348L9.24338 16.4723H18.0061V14.2168Z" fill="#001F3F"/>
<path d="M10.9996 0C4.91748 0 0 4.93613 0 11C0 17.0824 4.93596 22 10.9996 22C17.0818 22 22.0177 17.0639 22.0177 11C22.0177 4.91765 17.0818 0 10.9996 0ZM9.24338 16.4723L14.2533 7.80168H10.0013H6.00819V9.96471H9.94587V12.0908H5.98971V16.4908H3.45702V5.54622H18.5792L13.4029 14.2168H18.0061V16.4723H9.24338Z" fill="#80ED99"/>
<path d="M33.2577 0.277283H30.8914V15.0672H34.3114V9.13275H39.6541V6.2672H34.3114V3.34619H39.8759V0.277283H34.3114H33.2577Z" fill="#001F3F"/>
<path d="M45.1077 0.277283H41.5398V15.0672H51.042V11.9983H45.1077V0.277283Z" fill="#001F3F"/>
<path d="M56.3287 0.277283H52.687V15.0672H56.3287V0.277283Z" fill="#001F3F"/>
<path d="M59.1022 0.277283V3.4756H64.981L58.0854 15.0672H69.9355V11.9983H63.7054L70.6934 0.277283H59.1022Z" fill="#001F3F"/>
<path d="M76.7017 6.8589C76.7017 6.47067 76.6092 6.11941 76.4428 5.84209C76.2765 5.56478 76.0176 5.34293 75.6849 5.19504C75.3521 5.04714 74.9454 4.97321 74.4463 4.97321H72.4497V10.7413H73.8362V8.74463H74.4463C74.9454 8.74463 75.3521 8.67067 75.6849 8.52277C76.0176 8.37487 76.2765 8.15302 76.4428 7.87571C76.6277 7.57991 76.7017 7.24714 76.7017 6.8589ZM75.1303 7.41352C74.9639 7.54293 74.7605 7.5984 74.4648 7.5984H73.8547V6.11941H74.4648C74.7421 6.11941 74.9639 6.17487 75.1303 6.30428C75.2967 6.43369 75.3706 6.61857 75.3706 6.8589C75.3706 7.09924 75.2782 7.28411 75.1303 7.41352Z" fill="#001F3F"/>
<path d="M76.4058 10.7413H77.9771L78.5133 9.63201H80.3619L80.898 10.7413H82.4879L79.4376 4.60345L76.4058 10.7413ZM80.0846 8.57824H78.809L79.4561 7.09925L80.0846 8.57824Z" fill="#001F3F"/>
<path d="M85.7417 4.97321L84.614 7.13621L83.4863 4.97321H81.8779L83.893 8.41186V10.7598H85.3165V8.41186L87.3315 4.99169H85.7417V4.97321Z" fill="#001F3F"/>
<path d="M33.7402 17.4591V20.6135H33.0904L31.8229 18.4989V20.6135H31.1731V17.4591H31.8229L33.0924 19.5758V17.4591H33.7402ZM34.167 19.4652V19.4197C34.167 19.2478 34.1916 19.0897 34.2406 18.9453C34.2898 18.7995 34.3613 18.673 34.455 18.5662C34.549 18.4593 34.6645 18.3762 34.8017 18.317C34.939 18.2563 35.0964 18.226 35.274 18.226C35.4517 18.226 35.6099 18.2563 35.7486 18.317C35.8872 18.3762 36.0033 18.4593 36.0972 18.5662C36.1926 18.673 36.2649 18.7995 36.3139 18.9453C36.3631 19.0897 36.3877 19.2478 36.3877 19.4197V19.4652C36.3877 19.6357 36.3631 19.7937 36.3139 19.9396C36.2649 20.0842 36.1926 20.2104 36.0972 20.3188C36.0033 20.4256 35.8878 20.5088 35.7506 20.568C35.6134 20.6271 35.4561 20.6567 35.2784 20.6567C35.1008 20.6567 34.9425 20.6271 34.8039 20.568C34.6667 20.5088 34.5504 20.4256 34.455 20.3188C34.3613 20.2104 34.2898 20.0842 34.2406 19.9396C34.1916 19.7937 34.167 19.6357 34.167 19.4652ZM34.791 19.4197V19.4652C34.791 19.5634 34.7996 19.6551 34.8168 19.7403C34.8342 19.8255 34.8618 19.9008 34.8993 19.9657C34.9383 20.0293 34.9888 20.079 35.0509 20.1152C35.113 20.1513 35.1888 20.1694 35.2784 20.1694C35.365 20.1694 35.4395 20.1513 35.5016 20.1152C35.5637 20.079 35.6134 20.0293 35.651 19.9657C35.6885 19.9008 35.716 19.8255 35.7334 19.7403C35.7521 19.6551 35.7615 19.5634 35.7615 19.4652V19.4197C35.7615 19.3243 35.7521 19.2349 35.7334 19.1511C35.716 19.0659 35.6877 18.9908 35.6487 18.9257C35.6112 18.8594 35.5615 18.8072 35.4994 18.7697C35.4373 18.7322 35.3622 18.7135 35.274 18.7135C35.186 18.7135 35.1108 18.7322 35.0487 18.7697C34.988 18.8072 34.9383 18.8594 34.8993 18.9257C34.8618 18.9908 34.8342 19.0659 34.8168 19.1511C34.7996 19.2349 34.791 19.3243 34.791 19.4197ZM38.671 20.6135H38.0428V18.0613C38.0428 17.8837 38.0773 17.7342 38.1467 17.6129C38.2175 17.4901 38.3164 17.3977 38.4436 17.3356C38.572 17.272 38.7244 17.2402 38.9006 17.2402C38.9584 17.2402 39.0141 17.2446 39.0675 17.2532C39.1209 17.2605 39.1729 17.2699 39.2233 17.2814L39.2169 17.7515C39.1895 17.7443 39.1607 17.7392 39.1304 17.7364C39.0998 17.7335 39.0645 17.732 39.024 17.732C38.949 17.732 38.8847 17.745 38.8312 17.771C38.7793 17.7956 38.7395 17.8324 38.7122 17.8815C38.6846 17.9306 38.671 17.9906 38.671 18.0613V20.6135ZM39.1389 18.2693V18.7113H37.6939V18.2693H39.1389ZM40.493 20.6567C40.3109 20.6567 40.1477 20.6279 40.0033 20.5702C39.8589 20.5109 39.7362 20.4293 39.635 20.3252C39.5354 20.2213 39.4589 20.1008 39.4054 19.9634C39.352 19.8248 39.3252 19.6776 39.3252 19.5216V19.4349C39.3252 19.2572 39.3505 19.0947 39.401 18.9474C39.4516 18.8 39.5237 18.6723 39.6177 18.564C39.713 18.4556 39.8286 18.3726 39.9643 18.3148C40.1002 18.2556 40.2532 18.226 40.4237 18.226C40.5897 18.226 40.737 18.2534 40.8655 18.3083C40.9942 18.3632 41.1018 18.4412 41.1883 18.5423C41.2765 18.6434 41.3428 18.7647 41.3876 18.9063C41.4325 19.0463 41.4549 19.2023 41.4549 19.3743V19.6342H39.5918V19.2182H40.8417V19.1705C40.8417 19.084 40.8258 19.0067 40.7942 18.9387C40.7637 18.8694 40.7174 18.8146 40.6555 18.7742C40.5934 18.7337 40.5139 18.7135 40.417 18.7135C40.3348 18.7135 40.264 18.7314 40.2048 18.7677C40.1456 18.8037 40.0972 18.8542 40.0597 18.9193C40.0236 18.9844 39.9961 19.0609 39.9774 19.1489C39.96 19.2356 39.9513 19.3308 39.9513 19.4349V19.5216C39.9513 19.6155 39.9643 19.702 39.9904 19.7815C40.0177 19.861 40.056 19.9296 40.1052 19.9873C40.1556 20.0452 40.2164 20.0899 40.2871 20.1217C40.3593 20.1535 40.4409 20.1694 40.532 20.1694C40.6446 20.1694 40.7492 20.1476 40.8461 20.1043C40.9443 20.0596 41.0288 19.9925 41.0996 19.9028L41.4027 20.2323C41.3538 20.3029 41.2866 20.3709 41.2014 20.4358C41.1177 20.5009 41.0166 20.5543 40.8981 20.5961C40.7796 20.6366 40.6446 20.6567 40.493 20.6567ZM42.8891 20.6567C42.707 20.6567 42.5437 20.6279 42.3994 20.5702C42.255 20.5109 42.1322 20.4293 42.0311 20.3252C41.9315 20.2213 41.8549 20.1008 41.8015 19.9634C41.7481 19.8248 41.7213 19.6776 41.7213 19.5216V19.4349C41.7213 19.2572 41.7466 19.0947 41.7971 18.9474C41.8477 18.8 41.9198 18.6723 42.0137 18.564C42.1091 18.4556 42.2247 18.3726 42.3604 18.3148C42.4962 18.2556 42.6493 18.226 42.8197 18.226C42.9858 18.226 43.1331 18.2534 43.2616 18.3083C43.3901 18.3632 43.4978 18.4412 43.5844 18.5423C43.6725 18.6434 43.7389 18.7647 43.7836 18.9063C43.8286 19.0463 43.8509 19.2023 43.8509 19.3743V19.6342H41.9878V19.2182H43.2377V19.1705C43.2377 19.084 43.2218 19.0067 43.19 18.9387C43.1597 18.8694 43.1135 18.8146 43.0514 18.7742C42.9895 18.7337 42.91 18.7135 42.8131 18.7135C42.7308 18.7135 42.66 18.7314 42.6009 18.7677C42.5417 18.8037 42.4933 18.8542 42.4557 18.9193C42.4195 18.9844 42.3922 19.0609 42.3733 19.1489C42.3561 19.2356 42.3474 19.3308 42.3474 19.4349V19.5216C42.3474 19.6155 42.3604 19.702 42.3864 19.7815C42.4138 19.861 42.452 19.9296 42.5012 19.9873C42.5517 20.0452 42.6123 20.0899 42.6831 20.1217C42.7554 20.1535 42.8369 20.1694 42.9279 20.1694C43.0407 20.1694 43.1453 20.1476 43.2422 20.1043C43.3403 20.0596 43.4248 19.9925 43.4956 19.9028L43.7988 20.2323C43.7498 20.3029 43.6827 20.3709 43.5975 20.4358C43.5136 20.5009 43.4126 20.5543 43.2941 20.5961C43.1756 20.6366 43.0407 20.6567 42.8891 20.6567ZM45.4735 19.9657C45.4735 19.9209 45.4606 19.8804 45.4345 19.8444C45.4085 19.8083 45.3602 19.7751 45.2894 19.7447C45.2201 19.7129 45.1197 19.6841 44.9882 19.658C44.8697 19.632 44.7594 19.5996 44.6568 19.5606C44.5557 19.5201 44.4677 19.4717 44.3924 19.4155C44.3188 19.3591 44.261 19.2925 44.2192 19.216C44.1772 19.1382 44.1563 19.0492 44.1563 18.9496C44.1563 18.8514 44.1772 18.759 44.2192 18.6723C44.2625 18.5856 44.3238 18.509 44.4033 18.4426C44.4841 18.3748 44.5825 18.322 44.698 18.2845C44.815 18.2455 44.9463 18.226 45.0923 18.226C45.2959 18.226 45.4706 18.2585 45.6164 18.3235C45.7638 18.3885 45.8765 18.478 45.9545 18.5921C46.0339 18.7048 46.0736 18.8333 46.0736 18.9777H45.4497C45.4497 18.9171 45.4367 18.8629 45.4107 18.8152C45.3861 18.7662 45.3471 18.7279 45.2936 18.7004C45.2417 18.6715 45.1739 18.6571 45.0901 18.6571C45.0208 18.6571 44.9609 18.6693 44.9102 18.6939C44.8598 18.717 44.8208 18.7488 44.7932 18.7893C44.7673 18.8283 44.7542 18.8716 44.7542 18.9193C44.7542 18.9553 44.7614 18.9879 44.776 19.0167C44.7919 19.0443 44.8171 19.0694 44.8518 19.0925C44.8864 19.1156 44.9311 19.1374 44.986 19.1576C45.0424 19.1764 45.1117 19.1936 45.194 19.2095C45.363 19.2443 45.514 19.2898 45.6469 19.3462C45.7797 19.4009 45.8852 19.4761 45.9631 19.5713C46.0411 19.6652 46.0801 19.7887 46.0801 19.9418C46.0801 20.0459 46.057 20.1411 46.0107 20.2278C45.9645 20.3145 45.8982 20.3903 45.8115 20.4554C45.7248 20.5188 45.6209 20.5687 45.4996 20.6048C45.3796 20.6395 45.2447 20.6567 45.0944 20.6567C44.8764 20.6567 44.6915 20.6177 44.5398 20.5399C44.3896 20.4619 44.2756 20.363 44.1976 20.243C44.121 20.1217 44.0828 19.9975 44.0828 19.8703H44.6742C44.6769 19.9555 44.6987 20.0241 44.739 20.0762C44.781 20.1282 44.8337 20.1657 44.8973 20.1888C44.9622 20.2119 45.0322 20.2236 45.1075 20.2236C45.1883 20.2236 45.2554 20.2127 45.3088 20.191C45.3622 20.1679 45.4027 20.1376 45.4303 20.1001C45.4591 20.0611 45.4735 20.0163 45.4735 19.9657ZM48.8206 19.0147V19.5042H47.5965V19.0147H48.8206ZM51.9402 17.4525V20.6135H51.3163V18.1718L50.5668 18.4101V17.9184L51.8731 17.4525H51.9402ZM55.0903 18.759V19.3049C55.0903 19.5417 55.065 19.7462 55.0144 19.918C54.9639 20.0884 54.8909 20.2286 54.7957 20.3384C54.7017 20.4467 54.5899 20.5268 54.4597 20.5787C54.3298 20.6308 54.1854 20.6567 54.0266 20.6567C53.8994 20.6567 53.7811 20.6408 53.6713 20.6092C53.5615 20.5759 53.4626 20.5247 53.3744 20.4554C53.2879 20.3861 53.2126 20.2986 53.1492 20.1932C53.0871 20.0862 53.0394 19.9592 53.0061 19.8119C52.9729 19.6645 52.9564 19.4955 52.9564 19.3049V18.759C52.9564 18.5222 52.9815 18.3191 53.0322 18.1502C53.0841 17.9797 53.1572 17.8404 53.2509 17.732C53.3463 17.6237 53.4589 17.5443 53.5888 17.4937C53.719 17.4417 53.8634 17.4157 54.0222 17.4157C54.1494 17.4157 54.2669 17.4323 54.3753 17.4656C54.4851 17.4973 54.584 17.5472 54.6722 17.615C54.7602 17.6829 54.8354 17.7703 54.8975 17.8772C54.9596 17.9826 55.0071 18.109 55.0404 18.2563C55.0737 18.4022 55.0903 18.5697 55.0903 18.759ZM54.4642 19.3872V18.6745C54.4642 18.5604 54.4577 18.4607 54.4446 18.3755C54.4331 18.2903 54.415 18.2181 54.3904 18.1588C54.366 18.0982 54.3357 18.0491 54.2995 18.0115C54.2634 17.974 54.2222 17.9465 54.176 17.9292C54.1298 17.9118 54.0786 17.9032 54.0222 17.9032C53.9514 17.9032 53.8887 17.9169 53.8338 17.9443C53.7804 17.9718 53.7349 18.0158 53.6972 18.0765C53.6596 18.1357 53.6308 18.2151 53.6106 18.3148C53.5918 18.413 53.5824 18.5329 53.5824 18.6745V19.3872C53.5824 19.5013 53.5883 19.6016 53.5997 19.6884C53.6127 19.7751 53.6315 19.8494 53.6561 19.9115C53.682 19.9721 53.7123 20.0221 53.7471 20.0611C53.7831 20.0986 53.8244 20.126 53.8706 20.1433C53.9183 20.1607 53.9702 20.1694 54.0266 20.1694C54.0959 20.1694 54.1573 20.1555 54.2107 20.1282C54.2656 20.0993 54.3119 20.0546 54.3494 19.9938C54.3884 19.9316 54.4172 19.8509 54.4359 19.7512C54.4548 19.6516 54.4642 19.5303 54.4642 19.3872ZM57.638 18.759V19.3049C57.638 19.5417 57.6127 19.7462 57.5622 19.918C57.5115 20.0884 57.4387 20.2286 57.3433 20.3384C57.2494 20.4467 57.1376 20.5268 57.0076 20.5787C56.8776 20.6308 56.7331 20.6567 56.5743 20.6567C56.4471 20.6567 56.3288 20.6408 56.2189 20.6092C56.1091 20.5759 56.0102 20.5247 55.9222 20.4554C55.8355 20.3861 55.7605 20.2986 55.6969 20.1932C55.6348 20.0862 55.5871 19.9592 55.5538 19.8119C55.5207 19.6645 55.5041 19.4955 55.5041 19.3049V18.759C55.5041 18.5222 55.5294 18.3191 55.5799 18.1502C55.6318 17.9797 55.7048 17.8404 55.7987 17.732C55.8939 17.6237 56.0067 17.5443 56.1367 17.4937C56.2666 17.4417 56.411 17.4157 56.5698 17.4157C56.697 17.4157 56.8148 17.4323 56.9231 17.4656C57.0327 17.4973 57.1318 17.5472 57.2198 17.615C57.308 17.6829 57.3831 17.7703 57.4452 17.8772C57.5073 17.9826 57.555 18.109 57.5881 18.2563C57.6214 18.4022 57.638 18.5697 57.638 18.759ZM57.0118 19.3872V18.6745C57.0118 18.5604 57.0054 18.4607 56.9924 18.3755C56.9808 18.2903 56.9627 18.2181 56.9383 18.1588C56.9137 18.0982 56.8834 18.0491 56.8471 18.0115C56.8111 17.974 56.7699 17.9465 56.7236 17.9292C56.6774 17.9118 56.6262 17.9032 56.5698 17.9032C56.4992 17.9032 56.4363 17.9169 56.3814 17.9443C56.328 17.9718 56.2825 18.0158 56.245 18.0765C56.2075 18.1357 56.1785 18.2151 56.1583 18.3148C56.1395 18.413 56.1302 18.5329 56.1302 18.6745V19.3872C56.1302 19.5013 56.1359 19.6016 56.1474 19.6884C56.1605 19.7751 56.1792 19.8494 56.2038 19.9115C56.2299 19.9721 56.2602 20.0221 56.2947 20.0611C56.3308 20.0986 56.372 20.126 56.4182 20.1433C56.4659 20.1607 56.5179 20.1694 56.5743 20.1694C56.6436 20.1694 56.705 20.1555 56.7584 20.1282C56.8133 20.0993 56.8595 20.0546 56.897 19.9938C56.936 19.9316 56.9649 19.8509 56.9837 19.7512C57.0024 19.6516 57.0118 19.5303 57.0118 19.3872ZM58.0539 18.2325V18.0657C58.0539 17.9458 58.0798 17.8367 58.132 17.7385C58.1839 17.6403 58.2604 17.5616 58.3616 17.5024C58.4627 17.4432 58.5869 17.4136 58.7341 17.4136C58.8858 17.4136 59.0121 17.4432 59.1132 17.5024C59.2158 17.5616 59.2924 17.6403 59.3428 17.7385C59.395 17.8367 59.4209 17.9458 59.4209 18.0657V18.2325C59.4209 18.3495 59.395 18.4571 59.3428 18.5553C59.2924 18.6534 59.2166 18.7322 59.1154 18.7915C59.0143 18.8507 58.8894 18.8803 58.7407 18.8803C58.5904 18.8803 58.4642 18.8507 58.3616 18.7915C58.2604 18.7322 58.1839 18.6534 58.132 18.5553C58.0798 18.4571 58.0539 18.3495 58.0539 18.2325ZM58.4677 18.0657V18.2325C58.4677 18.283 58.4771 18.3314 58.4958 18.3776C58.5161 18.4224 58.5464 18.4593 58.5869 18.4882C58.6287 18.5155 58.6793 18.5294 58.7385 18.5294C58.8006 18.5294 58.8511 18.5155 58.8901 18.4882C58.9291 18.4593 58.9579 18.4224 58.9768 18.3776C58.9957 18.3314 59.0049 18.283 59.0049 18.2325V18.0657C59.0049 18.0122 58.9949 17.9631 58.9746 17.9184C58.9559 17.8721 58.9263 17.8353 58.8858 17.8079C58.8468 17.779 58.7962 17.7645 58.7341 17.7645C58.6764 17.7645 58.6272 17.779 58.5869 17.8079C58.5464 17.8353 58.5161 17.8721 58.4958 17.9184C58.4771 17.9631 58.4677 18.0122 58.4677 18.0657ZM59.5617 20.0069V19.84C59.5617 19.7216 59.5878 19.6133 59.6397 19.5151C59.6932 19.4168 59.7704 19.3382 59.8716 19.2789C59.9742 19.2197 60.0997 19.1901 60.2485 19.1901C60.3986 19.1901 60.5243 19.2197 60.6254 19.2789C60.7266 19.3382 60.8031 19.4168 60.8551 19.5151C60.907 19.6133 60.9331 19.7216 60.9331 19.84V20.0069C60.9331 20.1252 60.907 20.2335 60.8551 20.3319C60.8046 20.4301 60.7288 20.5088 60.6277 20.568C60.5265 20.6271 60.4016 20.6567 60.2528 20.6567C60.1026 20.6567 59.9762 20.6271 59.8738 20.568C59.7712 20.5088 59.6932 20.4301 59.6397 20.3319C59.5878 20.2335 59.5617 20.1252 59.5617 20.0069ZM59.9777 19.84V20.0069C59.9777 20.0588 59.9893 20.108 60.0124 20.1542C60.0355 20.2005 60.0672 20.2372 60.1076 20.2646C60.1496 20.2922 60.1979 20.3058 60.2528 20.3058C60.3221 20.3058 60.3762 20.2922 60.4153 20.2646C60.4543 20.2372 60.4811 20.2005 60.4955 20.1542C60.5114 20.108 60.5193 20.0588 60.5193 20.0069V19.84C60.5193 19.788 60.5092 19.7396 60.489 19.6948C60.4687 19.6486 60.4384 19.6118 60.3979 19.5845C60.3591 19.5554 60.3091 19.541 60.2485 19.541C60.1879 19.541 60.1372 19.5554 60.0969 19.5845C60.0579 19.6118 60.0281 19.6486 60.008 19.6948C59.9878 19.7396 59.9777 19.788 59.9777 19.84ZM60.4023 17.9097L58.862 20.3752L58.5586 20.2149L60.0989 17.7494L60.4023 17.9097ZM63.9573 18.2693H64.5228V20.5354C64.5228 20.7492 64.4751 20.9305 64.3799 21.0793C64.286 21.2295 64.1546 21.3428 63.9856 21.4193C63.8166 21.4973 63.6201 21.5364 63.3962 21.5364C63.2981 21.5364 63.194 21.5234 63.0844 21.4973C62.976 21.4715 62.872 21.431 62.7723 21.3761C62.6742 21.3212 62.5919 21.2518 62.5253 21.1681L62.8006 20.7998C62.8727 20.8836 62.9564 20.9485 63.0518 20.9947C63.1472 21.0424 63.2526 21.0662 63.3681 21.0662C63.4807 21.0662 63.5761 21.0453 63.6541 21.0034C63.7321 20.9631 63.792 20.903 63.8338 20.8237C63.8758 20.7456 63.8967 20.651 63.8967 20.5399V18.8109L63.9573 18.2693ZM62.3802 19.4695V19.424C62.3802 19.245 62.4018 19.0825 62.4453 18.9367C62.49 18.7893 62.5529 18.6629 62.6337 18.5575C62.7161 18.452 62.8158 18.3704 62.9326 18.3127C63.0496 18.2549 63.1818 18.226 63.3291 18.226C63.4852 18.226 63.6159 18.2549 63.7212 18.3127C63.8266 18.3704 63.9133 18.4527 63.9812 18.5597C64.049 18.6651 64.1019 18.7901 64.1394 18.9344C64.1784 19.0773 64.2087 19.2341 64.2304 19.4046V19.5042C64.2087 19.6675 64.1762 19.8191 64.1329 19.9592C64.0895 20.0993 64.0326 20.2221 63.9618 20.3275C63.8909 20.4315 63.8028 20.5123 63.6974 20.5702C63.5935 20.6279 63.4693 20.6567 63.3249 20.6567C63.1803 20.6567 63.0496 20.6271 62.9326 20.568C62.8171 20.5088 62.7181 20.4256 62.6359 20.3188C62.5536 20.2119 62.49 20.0862 62.4453 19.9418C62.4018 19.7974 62.3802 19.6399 62.3802 19.4695ZM63.0041 19.424V19.4695C63.0041 19.5663 63.0136 19.6566 63.0322 19.7403C63.0511 19.8241 63.0799 19.8986 63.1189 19.9634C63.1594 20.027 63.2093 20.077 63.2685 20.113C63.3291 20.1476 63.4007 20.165 63.4829 20.165C63.597 20.165 63.6902 20.1411 63.7625 20.0936C63.8346 20.0444 63.8887 19.9773 63.925 19.8921C63.961 19.8069 63.9819 19.7085 63.9876 19.5974V19.3136C63.9849 19.2227 63.9725 19.1409 63.9508 19.0688C63.9292 18.9951 63.8989 18.9322 63.8599 18.8803C63.8209 18.8283 63.7704 18.7878 63.7083 18.759C63.6462 18.73 63.5724 18.7155 63.4872 18.7155C63.4049 18.7155 63.3334 18.7344 63.2728 18.7719C63.2136 18.808 63.1637 18.8579 63.1234 18.9215C63.0844 18.9849 63.0548 19.0602 63.0345 19.1467C63.0143 19.2319 63.0041 19.3243 63.0041 19.424ZM66.087 20.6567C65.9051 20.6567 65.7418 20.6279 65.5973 20.5702C65.4529 20.5109 65.3301 20.4293 65.229 20.3252C65.1294 20.2213 65.0528 20.1008 64.9994 19.9634C64.946 19.8248 64.9194 19.6776 64.9194 19.5216V19.4349C64.9194 19.2572 64.9445 19.0947 64.9952 18.9474C65.0456 18.8 65.1179 18.6723 65.2118 18.564C65.307 18.4556 65.4226 18.3726 65.5585 18.3148C65.6941 18.2556 65.8472 18.226 66.0177 18.226C66.1837 18.226 66.331 18.2534 66.4597 18.3083C66.5882 18.3632 66.6958 18.4412 66.7825 18.5423C66.8705 18.6434 66.937 18.7647 66.9817 18.9063C67.0265 19.0463 67.0489 19.2023 67.0489 19.3743V19.6342H65.1858V19.2182H66.4358V19.1705C66.4358 19.084 66.4199 19.0067 66.3881 18.9387C66.3578 18.8694 66.3116 18.8146 66.2495 18.7742C66.1874 18.7337 66.1079 18.7135 66.0112 18.7135C65.9287 18.7135 65.8581 18.7314 65.7988 18.7677C65.7396 18.8037 65.6912 18.8542 65.6537 18.9193C65.6176 18.9844 65.5901 19.0609 65.5714 19.1489C65.554 19.2356 65.5453 19.3308 65.5453 19.4349V19.5216C65.5453 19.6155 65.5585 19.702 65.5843 19.7815C65.6119 19.861 65.6501 19.9296 65.6991 19.9873C65.7498 20.0452 65.8104 20.0899 65.8812 20.1217C65.9533 20.1535 66.035 20.1694 66.126 20.1694C66.2386 20.1694 66.3434 20.1476 66.4401 20.1043C66.5382 20.0596 66.6227 19.9925 66.6935 19.9028L66.9969 20.2323C66.9477 20.3029 66.8806 20.3709 66.7954 20.4358C66.7117 20.5009 66.6105 20.5543 66.492 20.5961C66.3737 20.6366 66.2386 20.6567 66.087 20.6567ZM68.5524 18.2693V18.7113H67.1875V18.2693H68.5524ZM67.5254 17.6909H68.1494V19.9072C68.1494 19.9751 68.1581 20.027 68.1754 20.0631C68.1941 20.0993 68.2217 20.1245 68.2577 20.1391C68.2938 20.152 68.3394 20.1585 68.3941 20.1585C68.4331 20.1585 68.4679 20.157 68.4982 20.1542C68.53 20.1498 68.5566 20.1455 68.5783 20.1411L68.5805 20.6005C68.5271 20.6177 68.4694 20.6316 68.4073 20.6416C68.3451 20.6517 68.2766 20.6567 68.2013 20.6567C68.0641 20.6567 67.9444 20.6344 67.8418 20.5896C67.7406 20.5434 67.6626 20.4698 67.6077 20.3687C67.553 20.2676 67.5254 20.1346 67.5254 19.9701V17.6909ZM70.175 19.9657C70.175 19.9209 70.162 19.8804 70.136 19.8444C70.1101 19.8083 70.0616 19.7751 69.9908 19.7447C69.9215 19.7129 69.8211 19.6841 69.6897 19.658C69.5714 19.632 69.4608 19.5996 69.3582 19.5606C69.2571 19.5201 69.1691 19.4717 69.094 19.4155C69.0203 19.3591 68.9626 19.2925 68.9206 19.216C68.8787 19.1382 68.8578 19.0492 68.8578 18.9496C68.8578 18.8514 68.8787 18.759 68.9206 18.6723C68.9639 18.5856 69.0253 18.509 69.1048 18.4426C69.1857 18.3748 69.2839 18.322 69.3994 18.2845C69.5165 18.2455 69.6479 18.226 69.7938 18.226C69.9973 18.226 70.1722 18.2585 70.3181 18.3235C70.4654 18.3885 70.578 18.478 70.656 18.5921C70.7353 18.7048 70.775 18.8333 70.775 18.9777H70.1511C70.1511 18.9171 70.1382 18.8629 70.1121 18.8152C70.0877 18.7662 70.0487 18.7279 69.9953 18.7004C69.9431 18.6715 69.8753 18.6571 69.7915 18.6571C69.7222 18.6571 69.6623 18.6693 69.6117 18.6939C69.5612 18.717 69.5222 18.7488 69.4948 18.7893C69.4688 18.8283 69.4558 18.8716 69.4558 18.9193C69.4558 18.9553 69.463 18.9879 69.4775 19.0167C69.4934 19.0443 69.5185 19.0694 69.5533 19.0925C69.5878 19.1156 69.6328 19.1374 69.6875 19.1576C69.7439 19.1764 69.8132 19.1936 69.8954 19.2095C70.0646 19.2443 70.2155 19.2898 70.3484 19.3462C70.4811 19.4009 70.5867 19.4761 70.6647 19.5713C70.7427 19.6652 70.7815 19.7887 70.7815 19.9418C70.7815 20.0459 70.7584 20.1411 70.7122 20.2278C70.666 20.3145 70.5996 20.3903 70.5129 20.4554C70.4264 20.5188 70.3223 20.5687 70.201 20.6048C70.0811 20.6395 69.9461 20.6567 69.7958 20.6567C69.5778 20.6567 69.393 20.6177 69.2412 20.5399C69.0911 20.4619 68.977 20.363 68.899 20.243C68.8225 20.1217 68.7842 19.9975 68.7842 19.8703H69.3756C69.3786 19.9555 69.4002 20.0241 69.4407 20.0762C69.4824 20.1282 69.5351 20.1657 69.5987 20.1888C69.6638 20.2119 69.7337 20.2236 69.8089 20.2236C69.8897 20.2236 69.957 20.2127 70.0104 20.191C70.0639 20.1679 70.1042 20.1376 70.1317 20.1001C70.1605 20.0611 70.175 20.0163 70.175 19.9657ZM72.9154 18.72V21.5147H72.2915V18.2693H72.87L72.9154 18.72ZM74.3996 19.4155V19.461C74.3996 19.6314 74.3792 19.7895 74.3389 19.9353C74.2999 20.0812 74.2421 20.2084 74.1655 20.3167C74.089 20.4236 73.9936 20.5073 73.8795 20.568C73.7669 20.6271 73.637 20.6567 73.4896 20.6567C73.3465 20.6567 73.2225 20.6279 73.1169 20.5702C73.0116 20.5123 72.9226 20.4315 72.8506 20.3275C72.7797 20.2221 72.7226 20.1001 72.6794 19.9614C72.6361 19.8228 72.6028 19.6739 72.5797 19.5151V19.3959C72.6028 19.2254 72.6361 19.0694 72.6794 18.928C72.7226 18.7849 72.7797 18.6614 72.8506 18.5575C72.9226 18.452 73.0108 18.3704 73.1149 18.3127C73.2203 18.2549 73.3438 18.226 73.4852 18.226C73.634 18.226 73.7647 18.2542 73.8775 18.3105C73.9916 18.3668 74.0868 18.4477 74.1633 18.553C74.2413 18.6586 74.2999 18.7841 74.3389 18.9302C74.3792 19.0761 74.3996 19.2378 74.3996 19.4155ZM73.7734 19.461V19.4155C73.7734 19.3156 73.7647 19.224 73.7473 19.1402C73.7314 19.055 73.7056 18.9807 73.6695 18.9171C73.6348 18.8535 73.5885 18.8045 73.5309 18.7697C73.4745 18.7337 73.4059 18.7155 73.3249 18.7155C73.2397 18.7155 73.1669 18.7294 73.1062 18.7568C73.0469 18.7841 72.9986 18.8239 72.9611 18.876C72.9234 18.928 72.8953 18.9901 72.8764 19.0622C72.8578 19.1345 72.8461 19.216 72.8419 19.3071V19.6081C72.8491 19.7152 72.8692 19.8111 72.9025 19.8963C72.9358 19.9801 72.987 20.0466 73.0563 20.0956C73.1256 20.1448 73.2166 20.1694 73.3294 20.1694C73.4116 20.1694 73.4809 20.1513 73.5373 20.1152C73.5935 20.0777 73.639 20.0263 73.6738 19.9614C73.7098 19.8963 73.7351 19.8213 73.7496 19.7361C73.7655 19.6508 73.7734 19.5591 73.7734 19.461ZM76.0525 20.0849V19.0406C76.0525 18.9655 76.0403 18.9012 76.0157 18.8477C75.9911 18.7928 75.9528 18.7503 75.9009 18.72C75.8502 18.6897 75.7846 18.6745 75.7036 18.6745C75.6343 18.6745 75.5744 18.6867 75.5239 18.7113C75.4733 18.7344 75.4343 18.7684 75.4069 18.8132C75.3795 18.8564 75.3657 18.9076 75.3657 18.967H74.7417C74.7417 18.8673 74.7649 18.7727 74.8111 18.6832C74.8573 18.5935 74.9246 18.5148 75.0126 18.447C75.1008 18.3776 75.2054 18.3235 75.3267 18.2845C75.4494 18.2455 75.5868 18.226 75.7384 18.226C75.9203 18.226 76.082 18.2563 76.2236 18.317C76.3653 18.3776 76.4764 18.4686 76.5573 18.59C76.6396 18.7113 76.6808 18.8629 76.6808 19.045V20.0479C76.6808 20.1766 76.6888 20.282 76.7047 20.3643C76.7204 20.4452 76.7435 20.516 76.774 20.5767V20.6135H76.1434C76.1131 20.5499 76.09 20.4706 76.0741 20.3752C76.0597 20.2785 76.0525 20.1816 76.0525 20.0849ZM76.1347 19.1857L76.1392 19.539H75.7903C75.708 19.539 75.6365 19.5482 75.5759 19.5671C75.5152 19.5857 75.4653 19.6126 75.4263 19.6471C75.3875 19.6804 75.3585 19.7194 75.3398 19.7642C75.3224 19.8089 75.3137 19.8581 75.3137 19.9115C75.3137 19.9649 75.3259 20.0134 75.3505 20.0566C75.3751 20.0986 75.4106 20.1319 75.4568 20.1563C75.503 20.1794 75.557 20.191 75.6191 20.191C75.713 20.191 75.7948 20.1722 75.8641 20.1346C75.9334 20.0971 75.9868 20.0509 76.0244 19.996C76.0634 19.9411 76.0835 19.8891 76.085 19.84L76.2497 20.1043C76.2266 20.1635 76.1948 20.2249 76.1543 20.2885C76.1153 20.3521 76.0654 20.4119 76.0048 20.4683C75.9441 20.5232 75.8713 20.5687 75.7861 20.6048C75.7008 20.6395 75.5997 20.6567 75.4827 20.6567C75.3339 20.6567 75.1989 20.6271 75.0776 20.568C74.9577 20.5073 74.8625 20.4243 74.7917 20.3188C74.7223 20.2119 74.6876 20.0906 74.6876 19.9549C74.6876 19.832 74.7107 19.7231 74.7569 19.6277C74.8031 19.5323 74.8712 19.4523 74.9606 19.3872C75.0516 19.3208 75.1649 19.2709 75.3008 19.2378C75.4365 19.2031 75.594 19.1857 75.7729 19.1857H76.1347ZM77.8203 18.2693V20.6135H77.1942V18.2693H77.8203ZM77.1552 17.6584C77.1552 17.5674 77.187 17.4923 77.2506 17.4331C77.314 17.3738 77.3992 17.3442 77.5061 17.3442C77.6116 17.3442 77.6961 17.3738 77.7597 17.4331C77.8246 17.4923 77.8571 17.5674 77.8571 17.6584C77.8571 17.7494 77.8246 17.8245 77.7597 17.8837C77.6961 17.9429 77.6116 17.9725 77.5061 17.9725C77.3992 17.9725 77.314 17.9429 77.2506 17.8837C77.187 17.8245 77.1552 17.7494 77.1552 17.6584ZM79.7202 20.1021V17.2857H80.3484V20.6135H79.7831L79.7202 20.1021ZM78.2383 19.4695V19.424C78.2383 19.245 78.2587 19.0825 78.2991 18.9367C78.3395 18.7893 78.3988 18.6629 78.4766 18.5575C78.5546 18.452 78.6508 18.3704 78.7648 18.3127C78.8789 18.2549 79.0089 18.226 79.1547 18.226C79.2921 18.226 79.4119 18.2549 79.5145 18.3127C79.6184 18.3704 79.7066 18.4527 79.7786 18.5597C79.8524 18.6651 79.9116 18.7901 79.9563 18.9344C80.0012 19.0773 80.0336 19.2341 80.0539 19.4046V19.5042C80.0336 19.6675 80.0012 19.8191 79.9563 19.9592C79.9116 20.0993 79.8524 20.2221 79.7786 20.3275C79.7066 20.4315 79.6184 20.5123 79.5145 20.5702C79.4104 20.6279 79.2891 20.6567 79.1505 20.6567C79.0046 20.6567 78.8746 20.6271 78.7606 20.568C78.6478 20.5088 78.5526 20.4256 78.4746 20.3188C78.3981 20.2119 78.3395 20.0862 78.2991 19.9418C78.2587 19.7974 78.2383 19.6399 78.2383 19.4695ZM78.8623 19.424V19.4695C78.8623 19.5663 78.8695 19.6566 78.8841 19.7403C78.9 19.8241 78.9251 19.8986 78.9599 19.9634C78.9959 20.027 79.0421 20.077 79.0985 20.113C79.1562 20.1476 79.2263 20.165 79.3085 20.165C79.4156 20.165 79.5036 20.1411 79.5729 20.0936C79.6422 20.0444 79.6949 19.9773 79.7311 19.8921C79.7687 19.8069 79.7903 19.7085 79.796 19.5974V19.3136C79.7918 19.2227 79.7786 19.1409 79.757 19.0688C79.7369 18.9951 79.7065 18.9322 79.6661 18.8803C79.6271 18.8283 79.5779 18.7878 79.5187 18.759C79.461 18.73 79.3925 18.7155 79.313 18.7155C79.232 18.7155 79.1627 18.7344 79.105 18.7719C79.0471 18.808 79.0002 18.8579 78.9641 18.9215C78.9296 18.9849 78.9035 19.0602 78.8861 19.1467C78.8702 19.2319 78.8623 19.3243 78.8623 19.424ZM81.8412 19.4652V19.4197C81.8412 19.2478 81.8656 19.0897 81.9148 18.9453C81.964 18.7995 82.0353 18.673 82.1292 18.5662C82.2231 18.4593 82.3387 18.3762 82.4759 18.317C82.613 18.2563 82.7705 18.226 82.9482 18.226C83.1259 18.226 83.2839 18.2563 83.4226 18.317C83.5612 18.3762 83.6775 18.4593 83.7714 18.5662C83.8668 18.673 83.9389 18.7995 83.9881 18.9453C84.0373 19.0897 84.0617 19.2478 84.0617 19.4197V19.4652C84.0617 19.6357 84.0373 19.7937 83.9881 19.9396C83.9389 20.0842 83.8668 20.2104 83.7714 20.3188C83.6775 20.4256 83.562 20.5088 83.4248 20.568C83.2876 20.6271 83.1301 20.6567 82.9525 20.6567C82.7748 20.6567 82.6167 20.6271 82.4781 20.568C82.3409 20.5088 82.2246 20.4256 82.1292 20.3188C82.0353 20.2104 81.964 20.0842 81.9148 19.9396C81.8656 19.7937 81.8412 19.6357 81.8412 19.4652ZM82.4651 19.4197V19.4652C82.4651 19.5634 82.4738 19.6551 82.491 19.7403C82.5084 19.8255 82.5358 19.9008 82.5735 19.9657C82.6125 20.0293 82.6629 20.079 82.7251 20.1152C82.7872 20.1513 82.863 20.1694 82.9525 20.1694C83.0392 20.1694 83.1135 20.1513 83.1756 20.1152C83.2377 20.079 83.2876 20.0293 83.3251 19.9657C83.3627 19.9008 83.3902 19.8255 83.4074 19.7403C83.4263 19.6551 83.4357 19.5634 83.4357 19.4652V19.4197C83.4357 19.3243 83.4263 19.2349 83.4074 19.1511C83.3902 19.0659 83.3619 18.9908 83.3229 18.9257C83.2854 18.8594 83.2357 18.8072 83.1735 18.7697C83.1114 18.7322 83.0364 18.7135 82.9482 18.7135C82.86 18.7135 82.785 18.7322 82.7228 18.7697C82.6622 18.8072 82.6125 18.8594 82.5735 18.9257C82.5358 18.9908 82.5084 19.0659 82.491 19.1511C82.4738 19.2349 82.4651 19.3243 82.4651 19.4197ZM85.8318 20.0524V18.2693H86.4557V20.6135H85.8685L85.8318 20.0524ZM85.9011 19.5713L86.0852 19.5671C86.0852 19.7231 86.0671 19.8682 86.031 20.0025C85.9948 20.1354 85.9406 20.2509 85.8685 20.3491C85.7963 20.446 85.7053 20.5218 85.5955 20.5767C85.4859 20.6301 85.3565 20.6567 85.2078 20.6567C85.0936 20.6567 84.9882 20.6408 84.8915 20.6092C84.7961 20.5759 84.7139 20.5247 84.6445 20.4554C84.5767 20.3846 84.5231 20.2942 84.4843 20.1846C84.4465 20.0733 84.4279 19.9396 84.4279 19.7837V18.2693H85.0518V19.788C85.0518 19.8573 85.0598 19.9159 85.0757 19.9634C85.093 20.0111 85.1167 20.0502 85.147 20.0805C85.1775 20.1108 85.2128 20.1324 85.2533 20.1455C85.2951 20.1585 85.3413 20.165 85.392 20.165C85.5204 20.165 85.6216 20.1391 85.6951 20.0869C85.7704 20.035 85.8231 19.9642 85.8534 19.8747C85.8852 19.7837 85.9011 19.6826 85.9011 19.5713ZM88.0805 18.2693V18.7113H86.7156V18.2693H88.0805ZM87.0536 17.6909H87.6775V19.9072C87.6775 19.9751 87.6862 20.027 87.7035 20.0631C87.7222 20.0993 87.7498 20.1245 87.7858 20.1391C87.8219 20.152 87.8673 20.1585 87.9222 20.1585C87.9613 20.1585 87.996 20.157 88.0263 20.1542C88.0581 20.1498 88.0847 20.1455 88.1064 20.1411L88.1086 20.6005C88.0552 20.6177 87.9973 20.6316 87.9354 20.6416C87.8733 20.6517 87.8045 20.6567 87.7294 20.6567C87.5923 20.6567 87.4725 20.6344 87.3699 20.5896C87.2687 20.5434 87.1907 20.4698 87.1358 20.3687C87.0809 20.2676 87.0536 20.1346 87.0536 19.9701V17.6909Z" fill="#001F3F"/>
</g>
<defs>
<clipPath id="clip0_709_7193">
<rect width="88.3667" height="22" fill="white"/>
</clipPath>
</defs>
</svg>
